<svg xmlns="http://www.w3.org/2000/svg" width="1280" height="760" viewBox="0 0 1280 760" role="img" aria-label="Example DevTools Network screenshot for HTTP 421 with highlighted Status, Protocol, Connection ID, and Remote Address columns">
  <defs>
    <style>
      .bg { fill: #0f172a; }
      .panel { fill: #111827; stroke: #334155; stroke-width: 1.2; }
      .toolbar { fill: #1f2937; }
      .tab { fill: #0b1220; stroke: #334155; stroke-width: 1; }
      .header { fill: #1e293b; }
      .grid { stroke: #334155; stroke-width: 1; }
      .txt { fill: #e2e8f0; font-size: 15px; font-family: -apple-system, BlinkMacSystemFont, "Segoe UI", Arial, sans-serif; }
      .small { fill: #93c5fd; font-size: 13px; font-family: -apple-system, BlinkMacSystemFont, "Segoe UI", Arial, sans-serif; }
      .headtxt { fill: #f8fafc; font-size: 14px; font-weight: 700; font-family: -apple-system, BlinkMacSystemFont, "Segoe UI", Arial, sans-serif; }
      .hl1 { fill: rgba(251, 191, 36, 0.14); stroke: #f59e0b; stroke-width: 2; }
      .hl2 { fill: rgba(45, 212, 191, 0.14); stroke: #14b8a6; stroke-width: 2; }
      .hl3 { fill: rgba(129, 140, 248, 0.14); stroke: #6366f1; stroke-width: 2; }
      .hl4 { fill: rgba(244, 114, 182, 0.14); stroke: #ec4899; stroke-width: 2; }
      .pill { fill: #0b1220; stroke: #475569; stroke-width: 1; rx: 8; ry: 8; }
      .pilltxt { fill: #e5e7eb; font-size: 13px; font-family: -apple-system, BlinkMacSystemFont, "Segoe UI", Arial, sans-serif; }
      .num { fill: #0f172a; font-size: 12px; font-weight: 800; font-family: -apple-system, BlinkMacSystemFont, "Segoe UI", Arial, sans-serif; }
    </style>
  </defs>

  <rect class="bg" x="0" y="0" width="1280" height="760"/>
  <rect class="panel" x="40" y="40" width="1200" height="630" rx="10" ry="10"/>
  <rect class="toolbar" x="40" y="40" width="1200" height="42" rx="10" ry="10"/>
  <text class="txt" x="62" y="66">DevTools - Network (Example capture for HTTP/3 421 recovery)</text>

  <rect class="tab" x="62" y="92" width="210" height="30" rx="6" ry="6"/>
  <text class="txt" x="76" y="112">api/me (421 -> retry)</text>
  <rect class="tab" x="280" y="92" width="130" height="30" rx="6" ry="6"/>
  <text class="txt" x="294" y="112">Headers</text>
  <rect class="tab" x="418" y="92" width="110" height="30" rx="6" ry="6"/>
  <text class="txt" x="432" y="112">Preview</text>

  <rect class="header" x="62" y="132" width="1156" height="44"/>
  <line class="grid" x1="62" y1="176" x2="1218" y2="176"/>
  <line class="grid" x1="62" y1="224" x2="1218" y2="224"/>
  <line class="grid" x1="62" y1="272" x2="1218" y2="272"/>
  <line class="grid" x1="62" y1="320" x2="1218" y2="320"/>

  <line class="grid" x1="332" y1="132" x2="332" y2="320"/>
  <line class="grid" x1="412" y1="132" x2="412" y2="320"/>
  <line class="grid" x1="494" y1="132" x2="494" y2="320"/>
  <line class="grid" x1="664" y1="132" x2="664" y2="320"/>
  <line class="grid" x1="758" y1="132" x2="758" y2="320"/>
  <line class="grid" x1="878" y1="132" x2="878" y2="320"/>
  <line class="grid" x1="976" y1="132" x2="976" y2="320"/>
  <line class="grid" x1="1218" y1="132" x2="1218" y2="320"/>

  <text class="headtxt" x="78" y="158">Name</text>
  <text class="headtxt" x="348" y="158">Status</text>
  <text class="headtxt" x="428" y="158">Type</text>
  <text class="headtxt" x="510" y="158">Protocol</text>
  <text class="headtxt" x="680" y="158">Connection ID</text>
  <text class="headtxt" x="774" y="158">Remote Address</text>
  <text class="headtxt" x="894" y="158">Size</text>
  <text class="headtxt" x="992" y="158">Time</text>

  <text class="txt" x="78" y="208">GET /api/me</text>
  <text class="txt" x="348" y="208">421</text>
  <text class="txt" x="428" y="208">fetch</text>
  <text class="txt" x="510" y="208">h3</text>
  <text class="txt" x="680" y="208">42</text>
  <text class="txt" x="774" y="208">198.51.100.30:443</text>
  <text class="txt" x="894" y="208">0.4 kB</text>
  <text class="txt" x="992" y="208">83 ms</text>

  <text class="txt" x="78" y="256">GET /api/me</text>
  <text class="txt" x="348" y="256">403</text>
  <text class="txt" x="428" y="256">fetch</text>
  <text class="txt" x="510" y="256">h2</text>
  <text class="txt" x="680" y="256">63</text>
  <text class="txt" x="774" y="256">198.51.100.44:443</text>
  <text class="txt" x="894" y="256">1.1 kB</text>
  <text class="txt" x="992" y="256">97 ms</text>

  <rect class="hl1" x="336" y="132" width="72" height="188" rx="6" ry="6"/>
  <rect class="hl2" x="498" y="132" width="162" height="188" rx="6" ry="6"/>
  <rect class="hl3" x="668" y="132" width="86" height="188" rx="6" ry="6"/>
  <rect class="hl4" x="762" y="132" width="112" height="188" rx="6" ry="6"/>

  <circle cx="372" cy="340" r="11" fill="#f59e0b"/><text class="num" x="368" y="344">1</text>
  <circle cx="578" cy="340" r="11" fill="#14b8a6"/><text class="num" x="574" y="344">2</text>
  <circle cx="710" cy="340" r="11" fill="#6366f1"/><text class="num" x="706" y="344">3</text>
  <circle cx="818" cy="340" r="11" fill="#ec4899"/><text class="num" x="814" y="344">4</text>

  <rect class="pill" x="72" y="358" width="1136" height="272"/>
  <text class="txt" x="90" y="390">How to read this capture in 30 seconds</text>
  <text class="small" x="90" y="420">1) Status: first row should show 421, second row can be 200/403/404.</text>
  <text class="small" x="90" y="446">2) Protocol: retry can stay h3 or switch to h2. Protocol change is optional.</text>
  <text class="small" x="90" y="472">3) Connection ID: key proof. IDs should differ between row 1 and row 2.</text>
  <text class="small" x="90" y="498">4) Remote Address: supporting proof. Change helps, but same address does not disprove retry.</text>
  <text class="pilltxt" x="90" y="538">Tip for beginners: read rows by time order, not grouped status.</text>
  <text class="pilltxt" x="90" y="564">This is an illustrative capture, not a vendor-specific UI contract.</text>

  <text class="txt" x="40" y="712">qa-content-network-00019 - illustrative screenshot for Beginner 421 proof checklist</text>
</svg>
